<svg width="18" height="18" viewBox="0 0 18 18" fill="none" xmlns="http://www.w3.org/2000/svg">
<path d="M11.0834 11.1667V11.1667L11.0905 11.1666C11.1598 11.1657 11.229 11.1605 11.2976 11.1512C11.352 11.1583 11.4292 11.1667 11.5001 11.1667C11.9286 11.1667 12.3475 11.0396 12.7038 10.8015C13.0601 10.5635 13.3378 10.2251 13.5018 9.82917C13.6658 9.43326 13.7087 8.99762 13.6251 8.57732C13.5415 8.15703 13.3352 7.77097 13.0321 7.46796C12.7291 7.16494 12.3431 6.95859 11.9228 6.87499C11.5025 6.79138 11.0668 6.83429 10.6709 6.99828C10.275 7.16227 9.93664 7.43998 9.69856 7.79628C9.46049 8.15259 9.33341 8.57149 9.33341 9.00002C9.33341 9.07193 9.34209 9.15039 9.3492 9.20488C9.34095 9.26537 9.33341 9.3386 9.33341 9.41669C9.33341 9.88082 9.51779 10.3259 9.84598 10.6541C10.1742 10.9823 10.6193 11.1667 11.0834 11.1667ZM5.66675 1.16669H12.3334C14.8148 1.16669 16.8334 3.18533 16.8334 5.66669V12.3334C16.8334 14.8147 14.8148 16.8334 12.3334 16.8334H1.50008C1.41167 16.8334 1.32689 16.7982 1.26438 16.7357C1.20187 16.6732 1.16675 16.5884 1.16675 16.5V5.66669C1.16675 3.18533 3.18539 1.16669 5.66675 1.16669ZM8.15418 10.6541C8.48237 10.3259 8.66675 9.88082 8.66675 9.41669C8.66675 9.338 8.6592 9.26492 8.65095 9.20469C8.65807 9.15002 8.66675 9.07148 8.66675 9.00002C8.66675 8.57149 8.53967 8.15259 8.3016 7.79628C8.06352 7.43998 7.72514 7.16227 7.32923 6.99828C6.93332 6.83429 6.49768 6.79138 6.07739 6.87499C5.65709 6.95859 5.27103 7.16494 4.96802 7.46796C4.665 7.77097 4.45865 8.15703 4.37505 8.57732C4.29145 8.99762 4.33435 9.43326 4.49834 9.82917C4.66233 10.2251 4.94004 10.5635 5.29635 10.8015C5.65265 11.0396 6.07155 11.1667 6.50008 11.1667C6.57137 11.1667 6.64911 11.1582 6.70355 11.1511C6.76651 11.1598 6.83858 11.1667 6.91675 11.1667C7.38088 11.1667 7.826 10.9823 8.15418 10.6541Z" fill="#0C4AC0" stroke="#0C4AC0"/>
</svg>
