<svg width="18" height="17" viewBox="0 0 18 17" fill="none" xmlns="http://www.w3.org/2000/svg">
<path d="M2.00008 7.81419V7.63211L1.883 7.49266C1.43995 6.96502 1.16675 6.28015 1.16675 5.52585V3.16669C1.16675 2.0645 2.06456 1.16669 3.16675 1.16669H14.8334C15.9356 1.16669 16.8334 2.0645 16.8334 3.16669V5.52502C16.8334 6.28027 16.5601 6.96499 16.1174 7.49157L16.0001 7.63108V7.81335V14.8334C16.0001 15.4764 15.4764 16 14.8334 16H3.16675C2.52372 16 2.00008 15.4764 2.00008 14.8334V7.81419ZM14.1001 7.8316L14.1087 7.83145L14.1173 7.83099C15.2883 7.76918 16.1667 6.70289 16.1667 5.52585V3.16669C16.1667 2.4317 15.5699 1.83335 14.8334 1.83335H12.3334H11.8334V2.33335V5.66669C11.8334 6.862 12.8048 7.83335 14.0001 7.83335V7.83344L14.0093 7.83327L14.1001 7.8316ZM7.33341 1.83335H6.83341V2.33335V5.66669C6.83341 6.862 7.80477 7.83335 9.00008 7.83335C10.1954 7.83335 11.1667 6.862 11.1667 5.66669V2.33335V1.83335H10.6667H7.33341ZM6.16675 2.33335V1.83335H5.66675H3.16675C2.43028 1.83335 1.83341 2.4317 1.83341 3.16669V5.52585C1.83341 6.70275 2.71186 7.76947 3.88337 7.83018L3.88336 7.83033L3.89549 7.83066L3.98632 7.83316L3.98632 7.83335H4.00008C5.19539 7.83335 6.16675 6.862 6.16675 5.66669V2.33335ZM6.83341 14.8334V15.3334H7.33341H10.6667H11.1667V14.8334V12.3334V11.8334H10.6667H7.33341H6.83341V12.3334V14.8334ZM11.8334 14.8334V15.3334H12.3334H14.8334H15.3334V14.8334V8.89085V8.24186L14.7059 8.40739C14.5242 8.45532 14.34 8.48596 14.1518 8.49568L14.1505 8.49576C13.7237 8.51892 13.2972 8.44487 12.9031 8.27919C12.5091 8.11351 12.1578 7.86052 11.8758 7.5393L11.5007 7.11208L11.1249 7.53866C10.6049 8.12894 9.84453 8.50002 9.00008 8.50002C8.15564 8.50002 7.39529 8.12894 6.87525 7.53866L6.49943 7.11208L6.12434 7.5393C5.84233 7.86052 5.49106 8.11351 5.09703 8.27919C4.703 8.44487 4.2765 8.51892 3.84968 8.49575L3.84847 8.49569C3.6609 8.48597 3.47583 8.45528 3.29428 8.40739L2.66675 8.24186V8.89085V14.8334V15.3334H3.16675H5.66675H6.16675V14.8334V12.3334C6.16675 11.6903 6.69039 11.1667 7.33341 11.1667H10.6667C11.3098 11.1667 11.8334 11.6903 11.8334 12.3334V14.8334Z" stroke="#0C4AC0"/>
</svg>
